# xmcd
#
# Track frame offsets:
# 180
# 23352
# 45188
# 66737
# 89949
# 110345
# 132849
# 153740
# 171307
# 199529
# 222315
# 244649
# 272036
# 295060
# 298455
# 304715
#
# Disc length: 4368 seconds
#
#
# Revision: 3
# Processed by: cddbd v1.5.2PL0 Copyright (c) Steve Scherf et al.
# Submitted via: FreeRIP 2.96 
#
DISCID=f4110e10
DTITLE=Serie 32 Se Botó La Salsa--2 - Serie 32 Se Botó La Salsa (disk 1)
DYEAR=1997
DGENRE=Salsa
TTITLE0=Cinco Noches - Paquito Guzmán
TTITLE1=Lobo Domesticado - Tommy Oliencia
TTITLE2=Desnudate Mujer - Frankie Ruiz
TTITLE3=Aquel Viejo Motel - David Pabón
TTITLE4=Despues De Hacer El Amor - Lalo Rodriguez
TTITLE5=Tu Me Quemas - Eddie Santiago
TTITLE6=Payaso - Andy Montañez
TTITLE7=Las Caraqueñas - Guaco
TTITLE8=Apariencias - Amilcar Boscan
TTITLE9=Aparentemente - Tony Vega
TTITLE10=Hay Otra En Tu Lugar - Ray Sepulveda
TTITLE11=Vivir Los Nuestro - India and Marc Anthony
TTITLE12=Bailemos Otra Vez - José Alberto
TTITLE13=Estar Enamorado - Noche Caliente
TTITLE14=Todo Se Derrumbo - Noche Caliente
TTITLE15=El Ladron De Tu Amor - Mentirosa - Noche Caliente
EXTD=
EXTT0=
EXTT1=
EXTT2=
EXTT3=
EXTT4=
EXTT5=
EXTT6=
EXTT7=
EXTT8=
EXTT9=
EXTT10=
EXTT11=
EXTT12=
EXTT13=
EXTT14=
EXTT15=
PLAYORDER=
